<svg fill="none" height="24" viewBox="0 0 24 24" width="24" xmlns="http://www.w3.org/2000/svg"><path clip-rule="evenodd" d="m0 12c0-6.62745 5.3726-12 12-12 6.6275 0 12 5.3726 12 12s-5.3726 12-12 12-12-5.3725-12-12zm12.5232 10.3665c2.5721-.1206 5.0072-1.1946 6.8307-3.0126.9501-.9474 1.7072-2.0701 2.2294-3.306 1.0021-2.372 1.0851-5.0321.233-7.46193-.8521-2.42987-2.5784-4.45545-4.8424-5.68205-2.264-1.22661-4.9036-1.56637-7.40448-.95308-2.50085.61329-4.68379 2.13569-6.12348 4.27056-1.43968 2.13488-2.03297 4.7293-1.66426 7.2777.3687 2.5484 1.673 4.8683 3.65873 6.5076 1.98573 1.6392 4.51065 2.4805 7.08279 2.3598zm2.3987-11.1665-3.7526-3.75273 1.1313-1.13135 5.6841 5.68408-5.6841 5.684-1.1313-1.1313 3.7526-3.7527h-9.32763v-1.6z" fill="#fff" fill-rule="evenodd"/></svg>