<svg width="25" height="24" viewBox="0 0 25 24" fill="none" xmlns="http://www.w3.org/2000/svg">
<path fill-rule="evenodd" clip-rule="evenodd" d="M0.5 12C0.5 5.37255 5.8726 0 12.5 0C19.1275 0 24.5 5.3726 24.5 12C24.5 18.6274 19.1274 24 12.5 24C5.8726 24 0.5 18.6275 0.5 12ZM13.0232 22.3665C15.5953 22.2459 18.0304 21.1719 19.8539 19.3539C20.804 18.4065 21.5611 17.2838 22.0833 16.0479C23.0854 13.6759 23.1684 11.0158 22.3163 8.58597C21.4642 6.1561 19.7379 4.13052 17.4739 2.90392C15.2099 1.67731 12.5703 1.33755 10.0694 1.95084C7.56857 2.56413 5.38563 4.08653 3.94594 6.2214C2.50626 8.35628 1.91297 10.9507 2.28168 13.4991C2.65038 16.0475 3.95468 18.3674 5.94041 20.0067C7.92614 21.6459 10.4511 22.4872 13.0232 22.3665ZM15.4219 11.2L11.6693 7.44727L12.8006 6.31592L18.4847 12L12.8006 17.684L11.6693 16.5527L15.4219 12.8H6.09427V11.2H15.4219Z" fill="#151522"/>
</svg>
