<svg fill="none" height="24" viewBox="0 0 24 24" width="24" xmlns="http://www.w3.org/2000/svg"><rect fill="#fff" height="24" rx="10" width="24"/><path clip-rule="evenodd" d="m7.71957 17.737c-1.74566-1.3044-2.87827-3.3892-2.87827-5.737 0-3.95217 3.20653-7.1587 7.1587-7.1587 3.263 0 6.8261 1.95 7.687 4.93696-.9631-3.33696-4.0392-5.77826-7.687-5.77826-4.41739 0-8 3.58261-8 8 0 4.4174 3.58261 8 8 8 4.4174 0 8-3.5826 8-8v-.4217h-.4391c-.0131 0-.0326 0-.0587 0-.0522 0-.1261-.0022-.2218-.0066-.1891-.0065-.45-.0195-.7434-.0456-.6-.0522-1.2848-.1544-1.75-.3413-.75-.3-1.174-.6957-1.6566-1.1609l-.0282-.02607c-.4848-.46522-1.0283-.98913-1.9739-1.43261-.9305-.43696-1.9587-.36739-2.7131-.21087-.3826.07826-.71303.18261-.94563.26739-.1174.0413-.21087.08043-.27609.10652-.38044.16087-.75.35-1.12174.52609 0 0 .73261.2 1.09348.31304.01304.00435.03261.01087.06087.01957.05435.01739.13261.04565.22608.08478.19131.07826.44131.19348.68913.35436.3913.25.7152.5674.8478.9543-.8282.1087-1.60649.4739-2.1891.8153-.35217.2065-.64565.4152-.85217.5695-.10218.0783-.18479.1435-.24131.1891-.04782.0392-.79565.6979-.79565.6979s.96522.1021 1.4413.1978c.3174.063.74348.1674 1.19131.3217.44782.1566.90002.3609 1.27612.624.3761.263.6521.5652.7869.913.3957 1.013.0065 1.9978-.7739 2.5522-.7717.5478-1.94347.6782-3.11521-.1261zm2.73043 1.2521c.3152-.1021.6087-.2521.8739-.4391 1.0609-.7543 1.6196-2.137 1.0696-3.5457-.2174-.5543-.6305-.976-1.0892-1.2978-.4608-.3217-.9891-.5565-1.48039-.7282-.32174-.1131-.63478-.2-.90652-.2653.09783-.063.2-.1282.31087-.1934.64783-.3805 1.46524-.7305 2.24784-.7305 1.1804 0 2.0587.3631 2.8978.75.0761.0348.1522.0718.2304.1066.75.3521 1.537.7217 2.4522.7217s1.5783-.25 2.0544-.5109c-.4239 3.5478-3.4435 6.3-7.1066 6.3-.5326 0-1.0521-.0587-1.55-.1674zm7.7478-6.6478c-.3152.1065-.6978.1848-1.1435.1848-.7173 0-1.3347-.287-2.1173-.6522-.0696-.0326-.1392-.0652-.2109-.0978-.7848-.3631-1.6913-.7478-2.8718-.8174-.1586-.7804-.75-1.31522-1.2586-1.64131-.0566-.03696-.1131-.07174-.1696-.10435.05-.01087.1022-.02391.1565-.03478.6826-.1413 1.4957-.17609 2.1848.15.8174.38478 1.2804.82824 1.7609 1.28914l.0174.0152c.4934.4739 1.0173.9717 1.9282 1.337.5065.2021 1.1631.3108 1.7239.3717z" fill="#000" fill-rule="evenodd"/></svg>