<svg fill="none" height="20" viewBox="0 0 20 20" width="20" xmlns="http://www.w3.org/2000/svg"><path d="m.417906.436126c.267666-.267816.630654-.4182663 1.009134-.4182663.37847 0 .74146.1504503 1.00912.4182663l7.55492 7.561424 7.55492-7.561424c.1317-.136443.2892-.245275.4633-.320145.1741-.0748698.3614-.11427875.551-.11592706.1895-.00164831.3774.03449666.5528.10632606.1755.07183.3348.177906.4688.312039.1341.134132.24.293635.3118.469201.0718.17557.1079.36368.1062.55336-.0016.18969-.041.37715-.1158.55144s-.1835.33192-.3199.46371l-7.5549 7.56147 7.5549 7.5614c.2601.2694.4039.6303.4007 1.0048-.0033.3746-.1534.7329-.418.9978-.2647.2648-.6227.4151-.9969.4183-.3743.0033-.7348-.1407-1.004-.4009l-7.55492-7.5614-7.55492 7.5614c-.26919.2602-.62974.4042-1.00399.4009-.37424-.0032-.732237-.1535-.996877-.4183-.264641-.2649-.4147528-.6232-.4180049-.9978-.003252-.3745.1406169-.7354.4006179-1.0048l7.554914-7.5614-7.554914-7.56147c-.267585-.2679-.417906-.6312-.417906-1.01 0-.37881.150321-.742107.417906-1.010004z" fill="#0d0d0d"/></svg>