<svg fill="none" height="80" viewBox="0 0 80 80" width="80" xmlns="http://www.w3.org/2000/svg" xmlns:xlink="http://www.w3.org/1999/xlink"><filter id="a" color-interpolation-filters="sRGB" filterUnits="userSpaceOnUse" height="120" width="120" x="-20" y="-20"><feFlood flood-opacity="0" result="BackgroundImageFix"/><feGaussianBlur in="BackgroundImageFix" stdDeviation="10"/><feComposite in2="SourceAlpha" operator="in" result="effect1_backgroundBlur_2864_7434"/><feBlend in="SourceGraphic" in2="effect1_backgroundBlur_2864_7434" mode="normal" result="shape"/></filter><linearGradient id="b" gradientUnits="userSpaceOnUse" x1="1.5" x2="76.5" y1="-4" y2="88"><stop offset="0" stop-color="#89ffc6"/><stop offset="1" stop-color="#819dff"/></linearGradient><g filter="url(#a)"><circle cx="40" cy="40" fill="#fff" fill-opacity=".2" r="40"/></g><path clip-rule="evenodd" d="m40 0c-22.0914 0-40 17.9086-40 40 0 22.0912 17.9086 40 40 40 22.0912 0 40-17.9088 40-40 0-22.0914-17.9088-40-40-40zm-36.55648 40c0-20.1896 16.36688-36.55648 36.55648-36.55648 20.1894 0 36.5565 16.36688 36.5565 36.55648 0 20.1894-16.3671 36.5565-36.5565 36.5565-20.1896 0-36.55648-16.3671-36.55648-36.5565zm32.95258-14.7281c-.6714-.6733-1.7616-.6749-2.4349-.0034-.6734.6714-.6749 1.7616-.0035 2.4349l12.2617 12.2966-12.2617 12.2965c-.6714.6733-.6699 1.7635.0035 2.4349.6733.6714 1.7635.6699 2.4349-.0034l13.4739-13.5123c.6701-.6719.6701-1.7594 0-2.4314z" fill="url(#b)" fill-rule="evenodd"/></svg>