<svg fill="none" height="14" viewBox="0 0 14 14" width="14" xmlns="http://www.w3.org/2000/svg"><g fill="#151522"><path d="m7.00008 5.8335c.32216 0 .58333.26117.58333.58333v3.5c0 .32207-.26117.58337-.58333.58337s-.58333-.2613-.58333-.58337v-3.5c0-.32216.26117-.58333.58333-.58333z"/><path d="m7.00009 4.95722c.48263 0 .87388-.39125.87388-.87388s-.39125-.87387-.87388-.87387-.87387.39124-.87387.87387.39124.87388.87387.87388z"/><path d="m0 7c0-3.866 3.134-7 7-7s7 3.134 7 7-3.134 7-7 7-7-3.134-7-7zm7-5.83333c-3.22166 0-5.83333 2.61167-5.83333 5.83333 0 3.2216 2.61167 5.8333 5.83333 5.8333 3.2216 0 5.8333-2.6117 5.8333-5.8333 0-3.22166-2.6117-5.83333-5.8333-5.83333z"/></g></svg>