<svg fill="none" height="24" viewBox="0 0 24 24" width="24" xmlns="http://www.w3.org/2000/svg"><rect fill="#fff" height="24" rx="10" width="24"/><path d="m17.2319 6.93516c-.9352-.43337-1.9312-.75269-2.9804-.93516-.1292.22809-.2813.53981-.3801.7907-1.1101-.16726-2.2125-.16726-3.2997 0-.1064-.25089-.2585-.56261-.3878-.7907-1.04916.18247-2.04514.50179-2.9803.93516-1.88552 2.8435-2.39492 5.61854-2.14402 8.34804 1.25448.9351 2.46334 1.4978 3.657 1.8703.29652-.403.55502-.8363.7831-1.2849-.43336-.1597-.84392-.3649-1.23167-.6006.10644-.0761.20528-.1597.30412-.2357 2.37967 1.11 4.95707 1.11 7.30637 0 .0989.0836.1977.1596.3042.2357-.3878.2357-.806.4333-1.2317.6006.2281.4486.4866.8819.7831 1.2849 1.1936-.3725 2.4101-.9352 3.657-1.8703.2965-3.1704-.5094-5.9151-2.144-8.34804zm-7.41289 6.67534c-.71468 0-1.3001-.6614-1.3001-1.4749 0-.8136.57022-1.475 1.3001-1.475.72989 0 1.30769.6614 1.30009 1.475 0 .8059-.5702 1.4749-1.30009 1.4749zm4.79749 0c-.7147 0-1.3001-.6614-1.3001-1.4749 0-.8136.5702-1.475 1.3001-1.475.7298 0 1.3077.6614 1.3001 1.475 0 .8059-.5703 1.4749-1.3001 1.4749z" fill="#000"/></svg>