<svg fill="none" height="25" viewBox="0 0 25 25" width="25" xmlns="http://www.w3.org/2000/svg"><rect fill="#000" height="24" rx="10" width="24" x=".18457" y=".5"/><path d="m17.0439 8.33715c-.9177-.39634-1.8887-.67787-2.8871-.83715-.1362.23036-.2598.46689-.3703.7087-1.0601-.14979-2.1388-.14979-3.199 0-.1112-.24214-.2361-.4787-.3743-.7087-.99967.15941-1.97175.44171-2.89026.83936-1.63276 2.18744-2.36847 4.84004-2.07535 7.48264 1.0665.7434 2.26473 1.3101 3.54129 1.675.28687-.3635.54047-.7485.75817-1.1508-.41484-.1457-.81471-.3253-1.19483-.5367.09997-.0687.19834-.1403.29271-.2134 1.10463.4905 2.31467.7452 3.54047.7452s2.4359-.2547 3.5405-.7452c.0952.0738.1936.1477.2927.2134-.3816.212-.7831.3919-1.1996.5374.217.4034.4706.7892.7582 1.1531 1.2775-.3647 2.4766-.9317 3.5437-1.6758.2951-2.6443-.4414-5.2991-2.077-7.48705zm-7.18255 5.97965c-.35549-.0241-.68652-.1761-.92181-.4232-.23529-.2472-.35602-.5697-.3362-.8983-.02215-.329.09776-.6527.33351-.9004.23576-.2476.56816-.399.9245-.421.17685.01.34985.0521.50905.1241.1591.0719.3013.1723.4182.2952.117.1229.2064.266.2632.4209.0567.155.0797.3188.0676.482.0225.3291-.0972.6531-.3331.9008-.2358.2477-.5684.3982-.92495.4199zm4.64975 0c-.3555-.0241-.6865-.1761-.9218-.4232-.2353-.2472-.356-.5697-.3362-.8983-.0224-.3291.0974-.653.3332-.9008s.5683-.3993.9248-.4213c.1769.0099.3499.0521.509.1241.1592.0719.3013.1722.4183.2951.1169.123.2064.266.2631.421.0568.1549.0798.3187.0676.4819.0226.3292-.0971.6533-.333.9011-.2358.2479-.5684.3986-.925.4204z" fill="#fff"/></svg>