<svg fill="none" height="32" viewBox="0 0 32 32" width="32" xmlns="http://www.w3.org/2000/svg" xmlns:xlink="http://www.w3.org/1999/xlink"><linearGradient id="a" gradientUnits="userSpaceOnUse" x1="-0" x2="27.5" y1="2" y2="30.5"><stop offset="0" stop-color="#5c9dff"/><stop offset="1" stop-color="#d49eff"/></linearGradient><circle cx="16" cy="16" fill="url(#a)" r="16"/><path d="m23.5469 9.34151c-1.3415-.62167-2.7702-1.07975-4.2753-1.34151-.1855.3272-.4036.77437-.5454 1.13429-1.5923-.23995-3.1738-.23995-4.7334 0-.1527-.35992-.3709-.80709-.5563-1.13429-1.5051.26176-2.9339.71984-4.27537 1.34151-2.70484 4.07909-3.43559 8.05999-3.07567 11.97549 1.79959 1.3415 3.53374 2.1486 5.24604 2.683.4254-.5781.7962-1.1997 1.1234-1.8432-.6217-.2291-1.2106-.5235-1.7668-.8616.1526-.1091.2944-.2291.4362-.3381 3.4138 1.5923 7.1111 1.5923 10.4813 0 .1418.1199.2835.229.4362.3381-.5562.3381-1.1561.6216-1.7668.8616.3272.6435.698 1.2651 1.1233 1.8432 1.7124-.5344 3.4574-1.3415 5.2461-2.683.4254-4.5481-.7307-8.4854-3.0756-11.97549zm-10.6339 9.57599c-1.0252 0-1.865-.9489-1.865-2.1159s.818-2.1158 1.865-2.1158 1.8759.9488 1.865 2.1158c0 1.1561-.818 2.1159-1.865 2.1159zm6.8821 0c-1.0252 0-1.8651-.9489-1.8651-2.1159s.818-2.1158 1.8651-2.1158c1.047 0 1.8759.9488 1.865 2.1158 0 1.1561-.818 2.1159-1.865 2.1159z" fill="#fff"/></svg>