<svg fill="none" height="24" viewBox="0 0 24 24" width="24" xmlns="http://www.w3.org/2000/svg" xmlns:xlink="http://www.w3.org/1999/xlink"><clipPath id="a"><path d="m5.5 5.5h13v13h-13z"/></clipPath><rect fill="#fff" height="24" rx="10" width="24"/><g clip-path="url(#a)"><path d="m11.2757 5.54598c-2.99383.33215-5.40192 2.7901-5.72734 5.77952-.3905 3.3215 1.62709 6.178 4.49074 7.1081v-1.5279s-.26031.0664-.58572.0664c-.91117 0-1.30167-.7972-1.36676-1.2622-.06508-.2657-.19525-.465-.3905-.6643-.19525-.0664-.26033-.0664-.26033-.1329 0-.1328.19525-.1328.26033-.1328.3905 0 .71592.465.84609.6643.32541.5314.71592.6643.91117.6643.26033 0 .45557-.0664.58572-.1329.0651-.465.2604-.93.6508-1.1957-1.49686-.3322-2.60328-1.1958-2.60328-2.6573 0-.7307.32542-1.4614.781-1.9929-.06508-.13287-.13016-.46501-.13016-.93002 0-.26573 0-.66431.19525-1.06289 0 0 .91115 0 1.82229.86359.3255-.13286.7811-.19929 1.2366-.19929.4556 0 .9112.06643 1.3017.19929.8461-.86359 1.8224-.86359 1.8224-.86359.1301.39858.1301.79716.1301 1.06289 0 .53144-.065.79715-.1301.93002.4555.5315.781 1.1958.781 1.9929 0 1.4615-1.1065 2.3251-2.6034 2.6573.3905.3321.6508.93.6508 1.5279v2.1922c2.6685-.8636 4.5559-3.388 4.5559-6.3109 0-3.98588-3.3192-7.10814-7.2243-6.64312z" fill="#000"/></g></svg>