<svg fill="none" height="32" viewBox="0 0 32 32" width="32" xmlns="http://www.w3.org/2000/svg" xmlns:xlink="http://www.w3.org/1999/xlink"><linearGradient id="a" gradientUnits="userSpaceOnUse" x1="-0" x2="27.5" y1="2" y2="30.5"><stop offset="0" stop-color="#5c9dff"/><stop offset="1" stop-color="#d49eff"/></linearGradient><clipPath id="b"><path d="m7 7h18v18h-18z"/></clipPath><circle cx="16" cy="16" fill="url(#a)" r="16"/><g clip-path="url(#b)"><path d="m14.9972 7.06366c-4.1454.45991-7.47966 3.86324-7.93024 8.00234-.54069 4.5991 2.2529 8.5543 6.21794 9.842v-2.1155s-.3604.0919-.811.0919c-1.2616 0-1.8023-1.1037-1.8924-1.7476-.0901-.3679-.2704-.6439-.5407-.9198-.27037-.092-.36048-.092-.36048-.184 0-.1839.27035-.1839.36048-.1839.5407 0 .9913.6438 1.1715.9198.4506.7358.9913.9198 1.2616.9198.3605 0 .6308-.092.811-.184.0902-.6438.3605-1.2877.9012-1.6556-2.0727-.4599-3.6046-1.6557-3.6046-3.6793 0-1.0118.4506-2.0236 1.0814-2.7594-.0902-.184-.1803-.6439-.1803-1.2878 0-.3679 0-.9198.2704-1.4717 0 0 1.2616 0 2.5232 1.1958.4506-.184 1.0814-.276 1.7122-.276.6309 0 1.2616.092 1.8024.276 1.1715-1.1958 2.5232-1.1958 2.5232-1.1958.1802.5519.1802 1.1038.1802 1.4717 0 .7359-.0901 1.1038-.1802 1.2878.6308.7358 1.0814 1.6556 1.0814 2.7594 0 2.0236-1.532 3.2194-3.6046 3.6793.5406.4599.9011 1.2877.9011 2.1155v3.0354c3.6947-1.1958 6.3081-4.691 6.3081-8.7382 0-5.5189-4.5959-9.842-10.0028-9.19814z" fill="#fff"/></g></svg>