<svg fill="none" height="24" viewBox="0 0 24 24" width="24" xmlns="http://www.w3.org/2000/svg"><rect fill="#fff" height="24" rx="10" width="24"/><g fill="#000"><path d="m12.9781 12.4147c0 2.3899-1.9358 4.3273-4.32369 4.3273-2.38786 0-4.32384-1.9374-4.32384-4.3273 0-2.39 1.93584-4.32754 4.32384-4.32754 2.38799 0 4.32369 1.93754 4.32369 4.32754z"/><path d="m17.7213 12.4146c0 2.2496-.9679 4.074-2.1619 4.074s-2.1619-1.8244-2.1619-4.074.9677-4.07402 2.1617-4.07402 2.162 1.82382 2.162 4.07402"/><path d="m19.6612 12.4146c0 2.0151-.3404 3.6496-.7604 3.6496s-.7602-1.6341-.7602-3.6496c0-2.0156.3404-3.64971.7602-3.64971.4199 0 .7604 1.63401.7604 3.64971z"/></g></svg>