<svg fill="none" height="32" viewBox="0 0 32 32" width="32" xmlns="http://www.w3.org/2000/svg" xmlns:xlink="http://www.w3.org/1999/xlink"><linearGradient id="a" gradientUnits="userSpaceOnUse" x1="-0" x2="27.5" y1="2" y2="30.5"><stop offset="0" stop-color="#5c9dff"/><stop offset="1" stop-color="#d49eff"/></linearGradient><circle cx="16" cy="16" fill="url(#a)" r="16"/><g fill="#fff"><path d="m16.7752 15.8918c0 2.7016-2.1883 4.8917-4.8875 4.8917-2.69925 0-4.8877-2.1901-4.8877-4.8917s2.18828-4.8918 4.8877-4.8918c2.6994 0 4.8875 2.1902 4.8875 4.8918z"/><path d="m22.1367 15.8917c0 2.5429-1.0941 4.6052-2.4438 4.6052s-2.4439-2.0623-2.4439-4.6052c0-2.543 1.094-4.6053 2.4437-4.6053s2.4438 2.0616 2.4438 4.6053"/><path d="m24.3297 15.8917c0 2.2779-.3848 4.1256-.8595 4.1256-.4748 0-.8594-1.8472-.8594-4.1256s.3848-4.1256.8594-4.1256.8595 1.8471.8595 4.1256z"/></g></svg>