<svg fill="none" height="32" viewBox="0 0 32 32" width="32" xmlns="http://www.w3.org/2000/svg" xmlns:xlink="http://www.w3.org/1999/xlink"><linearGradient id="a" gradientUnits="userSpaceOnUse" x1="-0" x2="27.5" y1="2" y2="30.5"><stop offset="0" stop-color="#5c9dff"/><stop offset="1" stop-color="#d49eff"/></linearGradient><circle cx="16" cy="16" fill="url(#a)" r="16"/><path d="m26.3636 9.89444c-.7488.32076-1.5533.53756-2.399.63556.8628-.4994 1.5246-1.29189 1.8367-2.23521-.8071.46299-1.7013.79939-2.6528.97973-.7623-.78379-1.8475-1.27452-3.0493-1.27452-2.3067 0-4.1775 1.80861-4.1775 4.0403 0 .3156.0377.6225.1077.9191-3.4735-.1691-6.55056-1.7774-8.6115-4.2207-.35873.59825-.56501 1.2919-.56501 2.0306 0 1.4011.7381 2.6383 1.85826 3.3623-.68519-.0217-1.32912-.2029-1.89234-.5055v.052c0 1.9569 1.43943 3.5895 3.35149 3.9606-.35156.0919-.72016.1404-1.10042.1404-.26905 0-.53182-.0243-.78653-.0711.53183 1.604 2.07435 2.7728 3.90305 2.804-1.4305 1.0838-3.23221 1.7297-5.18912 1.7297-.33721 0-.66994-.0191-.99728-.0564 1.84928 1.1471 4.0447 1.8147 6.4034 1.8147 7.6859 0 11.8876-6.1541 11.8876-11.4915 0-.1734-.0044-.3485-.0125-.5219.8161-.5705 1.5246-1.2806 2.0833-2.08956z" fill="#fff"/></svg>