<svg fill="none" height="25" viewBox="0 0 25 25" width="25" xmlns="http://www.w3.org/2000/svg"><rect fill="#000" height="24" rx="10" width="24" x=".18457" y=".5"/><path d="m19.1598 8.69146c-.4782.19839-.99.33488-1.5295.39678.5504-.31258.9713-.807 1.172-1.39601-.5164.28451-1.0875.49058-1.6949.60708-.4842-.49058-1.1765-.79931-1.9447-.79931-1.4727 0-2.6662 1.12918-2.6662 2.521 0 .2003.0256.3925.0699.5747-2.2153-.098-4.17914-1.10531-5.49255-2.62703-.23075.37062-.36197.80123-.36197 1.26989 0 .87694.47166 1.64594 1.18463 2.09804-.43591-.0119-.84622-.1261-1.20575-.3141v.0304c0 1.223.91812 2.2426 2.13687 2.4748-.22222.0557-.45947.088-.70037.088-.17103 0-.33435-.0157-.49725-.0442.34287 1.0012 1.32437 1.7301 2.49439 1.752-.90961.6748-2.06255 1.0769-3.30486 1.0769-.21166 0-.42291-.0096-.63497-.0338 1.18503.7151 2.58375 1.1334 4.09463 1.1334 4.9022 0 7.581-3.8428 7.581-7.1707 0-.1061 0-.2142-.0085-.3226.5228-.35253.9754-.79928 1.3329-1.30562z" fill="#fff"/></svg>