<svg fill="none" height="24" viewBox="0 0 24 24" width="24" xmlns="http://www.w3.org/2000/svg"><rect fill="#fff" height="24" rx="10" width="24"/><path d="m19 8.30243c-.5148.22055-1.0679.36957-1.6493.43692.5931-.34334 1.0481-.88815 1.2627-1.53668-.5549.3183-1.1696.54958-1.8238.67356-.5241-.53885-1.2702-.87623-2.0964-.87623-1.5858 0-2.872 1.24342-2.872 2.77772 0 .21697.0259.42798.074.63188-2.38802-.1163-4.5035-1.222-5.92039-2.90174-.24663.41129-.38845.88815-.38845 1.39601 0 .96326.50745 1.81383 1.27755 2.31163-.47106-.0149-.91377-.1395-1.30098-.3476v.0358c0 1.3453.98961 2.4678 2.30415 2.7229-.24169.0632-.49511.0965-.75654.0965-.18497 0-.36563-.0166-.54073-.0488.36563 1.1027 1.42614 1.9062 2.68334 1.9277-.98344.7451-2.22215 1.1892-3.56752 1.1892-.23183 0-.46058-.0132-.68563-.0388 1.27138.7886 2.78076 1.2476 4.40236 1.2476 5.28404 0 8.17274-4.231 8.17274-7.9004 0-.11921-.0031-.23962-.0086-.35884.561-.39222 1.0481-.8804 1.4323-1.43654z" fill="#000"/></svg>