<svg fill="none" height="32" viewBox="0 0 32 32" width="32" xmlns="http://www.w3.org/2000/svg" xmlns:xlink="http://www.w3.org/1999/xlink"><linearGradient id="a" gradientUnits="userSpaceOnUse" x1="-0" x2="27.5" y1="2" y2="30.5"><stop offset="0" stop-color="#5c9dff"/><stop offset="1" stop-color="#d49eff"/></linearGradient><circle cx="16" cy="16" fill="url(#a)" r="16"/><path d="m25.2147 12.0051c-.221-.7845-.8327-1.3997-1.6207-1.6172-1.4509-.3879-7.2836-.3879-7.2836-.3879s-5.8216-.00929-7.28764.3879c-.7839.2181-1.39857.8327-1.61722 1.6172-.27506 1.487-.41172 2.992-.40533 4.5039-.0029 1.5021.13317 3.0048.40533 4.4824.21865.7845.83332 1.3997 1.61722 1.6207 1.45094.3879 7.28764.3879 7.28764.3879s5.8182 0 7.2836-.3879c.788-.221 1.3997-.8356 1.6207-1.6207.2669-1.4776.3972-2.9803.3879-4.4824.0093-1.5119-.118-3.0169-.3879-4.5039zm-10.7675 7.2877v-5.5797l4.8552 2.7959z" fill="#fff"/></svg>