<svg fill="none" height="24" viewBox="0 0 24 24" width="24" xmlns="http://www.w3.org/2000/svg"><rect fill="#fff" height="24" rx="10" width="24"/><path d="m17.7495 9.29341c-.1426-.50603-.5372-.9029-1.0455-1.0432-.9359-.2502-4.6983-.2502-4.6983-.2502s-3.75525-.006-4.70091.2502c-.50566.14067-.90215.53717-1.0432 1.0432-.17743.95919-.26558 1.92999-.26145 2.90529-.00188.9689.0859 1.9382.26145 2.8914.14105.506.53754.9029 1.0432 1.0454.93591.2502 4.70091.2502 4.70091.2502s3.7531 0 4.6983-.2502c.5083-.1425.9029-.539 1.0455-1.0454.1722-.9532.2562-1.9225.2502-2.8914.006-.9753-.0762-1.9461-.2502-2.90529zm-6.9456 4.70099v-3.5993l3.1318 1.8036z" fill="#000"/></svg>